<svg width="550" height="189" viewBox="0 0 550 189" fill="none" xmlns="http://www.w3.org/2000/svg">
<path d="M510.027 90.1999C484.027 91.1999 468.227 96.3999 468.227 113.8C468.227 126.2 476.227 135 488.627 135C501.427 135 509.827 125.6 510.027 112.8V90.1999ZM539.427 86.1999V120.4C539.427 127.4 543.427 134.2 549.227 137.8L549.827 138.2V146.6H510.027V137.2C503.627 144.6 493.227 148.6 480.427 148.6C456.627 148.6 438.827 134 438.827 114C438.827 81.9999 483.827 81.3999 510.027 81.5999V79.9999C510.027 59.5999 503.627 48.1999 490.627 48.1999C476.427 48.1999 471.627 61.7999 476.427 78.1999C460.827 83.5999 446.827 78.3999 446.827 64.5999C446.827 49.3999 463.027 39.7999 488.427 39.7999C520.427 39.7999 539.427 54.9999 539.427 86.1999Z" fill="white"/>
<path d="M350.674 89.9999C352.674 121.8 361.074 135 376.874 135C392.474 135 402.674 121.8 402.674 97.3999C402.674 72.7999 392.474 54.3999 376.874 54.3999C363.274 54.3999 352.874 68.3999 350.674 89.9999ZM386.874 148.6C372.474 148.6 359.674 141.6 350.674 128V162.4C350.674 169.2 354.674 176.2 360.474 179.6L361.074 180.2V188.4H310.874V180.2L311.474 179.6C317.274 176.2 321.274 169.2 321.274 162.4V78.5999C321.274 71.5999 317.274 64.7999 311.474 61.1999L310.874 60.7999V52.3999L342.274 41.7999H350.674V62.3999C358.874 48.3999 372.274 39.7999 387.674 39.7999C412.474 39.7999 431.874 61.3999 431.874 93.7999C431.874 126 412.874 148.6 386.874 148.6Z" fill="white"/>
<path d="M269.988 90.1999C243.988 91.1999 228.188 96.3999 228.188 113.8C228.188 126.2 236.188 135 248.588 135C261.388 135 269.788 125.6 269.988 112.8V90.1999ZM299.388 86.1999V120.4C299.388 127.4 303.388 134.2 309.188 137.8L309.788 138.2V146.6H269.988V137.2C263.588 144.6 253.188 148.6 240.388 148.6C216.588 148.6 198.788 134 198.788 114C198.788 81.9999 243.788 81.3999 269.988 81.5999V79.9999C269.988 59.5999 263.588 48.1999 250.588 48.1999C236.388 48.1999 231.588 61.7999 236.388 78.1999C220.788 83.5999 206.788 78.3999 206.788 64.5999C206.788 49.3999 222.988 39.7999 248.388 39.7999C280.388 39.7999 299.388 54.9999 299.388 86.1999Z" fill="white"/>
<path d="M48 24L80.4 107.4L103.8 49.2L94 24C92 18.4 87 13 81.4 10.2L77.4 8.4V0H129.8V8.4C125 12.2 123.4 18.4 125.4 24L158 107.2L191.4 24C193.8 18.4 192 12.2 187.2 8.4V0H217.2V8.4L213.2 10.2C207.8 13 202.8 18.4 200.4 24L151.2 146.6H142L108.2 60.6L73.8 146.6H64.6L16.6 24C14.4 18.4 9.4 13 4 10.2L0 8.4V0H52.4V8.4C47.6 12.2 45.8 18.4 48 24Z" fill="white"/>
</svg>
