<svg width="361" height="361" viewBox="0 0 361 361" fill="none" xmlns="http://www.w3.org/2000/svg">
<rect width="361" height="361" rx="50" fill="black"/>
<path d="M109.6 131.8L148.48 231.88L176.56 162.04L164.8 131.8C162.4 125.08 156.4 118.6 149.68 115.24L144.88 113.08V103H207.76V113.08C202 117.64 200.08 125.08 202.48 131.8L241.6 231.64L281.68 131.8C284.56 125.08 282.4 117.64 276.64 113.08V103H312.64V113.08L307.84 115.24C301.36 118.6 295.36 125.08 292.48 131.8L233.44 278.92H222.4L181.84 175.72L140.56 278.92H129.52L71.92 131.8C69.28 125.08 63.28 118.6 56.8 115.24L52 113.08V103H114.88V113.08C109.12 117.64 106.96 125.08 109.6 131.8Z" fill="white"/>
</svg>
