<svg width="218" height="147" viewBox="0 0 218 147" fill="none" xmlns="http://www.w3.org/2000/svg">
<path d="M48.3999 24.4L80.7999 107.8L104.2 49.6L94.3999 24.4C92.3999 18.8 87.3999 13.4 81.7999 10.6L77.7999 8.80002V0.400024H130.2V8.80002C125.4 12.6 123.8 18.8 125.8 24.4L158.4 107.6L191.8 24.4C194.2 18.8 192.4 12.6 187.6 8.80002V0.400024H217.6V8.80002L213.6 10.6C208.2 13.4 203.2 18.8 200.8 24.4L151.6 147H142.4L108.6 61L74.1999 147H64.9999L16.9999 24.4C14.7999 18.8 9.7999 13.4 4.3999 10.6L0.399902 8.80002V0.400024H52.7999V8.80002C47.9999 12.6 46.1999 18.8 48.3999 24.4Z" fill="white"/>
</svg>
