<svg width="534" height="534" viewBox="0 0 534 534" fill="none" xmlns="http://www.w3.org/2000/svg">
<path d="M266.826 0C155.465 0 122.896 0.114882 116.566 0.640054C93.7123 2.5397 79.4916 6.13796 63.999 13.8514C52.0596 19.7801 42.6434 26.6525 33.3503 36.2861C16.4258 53.8548 6.1685 75.469 2.45536 101.161C0.650084 113.634 0.124911 116.178 0.0182352 179.888C-0.022794 201.125 0.0182352 229.074 0.0182352 266.562C0.0182352 377.833 0.141323 410.369 0.674701 416.688C2.52101 438.925 6.00849 452.916 13.3937 468.22C27.5077 497.515 54.4639 519.507 86.2204 527.712C97.2162 530.543 109.361 532.102 124.952 532.841C131.558 533.128 198.886 533.333 266.256 533.333C333.626 533.333 400.996 533.251 407.437 532.923C425.49 532.074 435.973 530.666 447.564 527.671C463.31 523.633 477.985 516.207 490.564 505.91C503.142 495.613 513.322 482.694 520.39 468.056C527.632 453.121 531.304 438.597 532.966 417.52C533.327 412.925 533.479 339.66 533.479 266.492C533.479 193.313 533.315 120.182 532.954 115.587C531.271 94.17 527.599 79.7688 520.124 64.547C513.99 52.0865 507.179 42.7811 497.291 33.2664C479.649 16.4116 458.067 6.15437 432.346 2.44534C419.886 0.644157 417.403 0.110779 353.644 0H266.826Z" fill="url(#paint0_radial_232_15)"/>
<path d="M266.826 0C155.465 0 122.896 0.114882 116.566 0.640054C93.7123 2.5397 79.4916 6.13796 63.999 13.8514C52.0596 19.7801 42.6434 26.6525 33.3503 36.2861C16.4258 53.8548 6.1685 75.469 2.45536 101.161C0.650084 113.634 0.124911 116.178 0.0182352 179.888C-0.022794 201.125 0.0182352 229.074 0.0182352 266.562C0.0182352 377.833 0.141323 410.369 0.674701 416.688C2.52101 438.925 6.00849 452.916 13.3937 468.22C27.5077 497.515 54.4639 519.507 86.2204 527.712C97.2162 530.543 109.361 532.102 124.952 532.841C131.558 533.128 198.886 533.333 266.256 533.333C333.626 533.333 400.996 533.251 407.437 532.923C425.49 532.074 435.973 530.666 447.564 527.671C463.31 523.633 477.985 516.207 490.564 505.91C503.142 495.613 513.322 482.694 520.39 468.056C527.632 453.121 531.304 438.597 532.966 417.52C533.327 412.925 533.479 339.66 533.479 266.492C533.479 193.313 533.315 120.182 532.954 115.587C531.271 94.17 527.599 79.7688 520.124 64.547C513.99 52.0865 507.179 42.7811 497.291 33.2664C479.649 16.4116 458.067 6.15437 432.346 2.44534C419.886 0.644157 417.403 0.110779 353.644 0H266.826Z" fill="url(#paint1_radial_232_15)"/>
<path d="M266.704 69.7495C213.218 69.7495 206.506 69.9834 185.499 70.9394C164.533 71.8994 150.222 75.2187 137.7 80.0889C124.747 85.119 113.759 91.8478 102.813 102.798C91.858 113.745 85.1292 124.733 80.0826 137.681C75.2001 150.208 71.8768 164.523 70.9331 185.48C69.9976 206.487 69.7515 213.204 69.7515 266.689C69.7515 320.175 69.9894 326.867 70.9413 347.874C71.9055 368.839 75.2248 383.15 80.0908 395.672C85.1251 408.625 91.8538 419.613 102.805 430.56C113.747 441.514 124.735 448.26 137.679 453.29C150.21 458.16 164.525 461.479 185.486 462.439C206.493 463.395 213.202 463.629 266.683 463.629C320.173 463.629 326.865 463.395 347.871 462.439C368.837 461.479 383.165 458.16 395.695 453.29C408.644 448.26 419.615 441.514 430.557 430.56C441.512 419.613 448.241 408.625 453.288 395.677C458.129 383.15 461.452 368.835 462.437 347.878C463.381 326.871 463.627 320.175 463.627 266.689C463.627 213.204 463.381 206.491 462.437 185.484C461.452 164.519 458.129 150.208 453.288 137.686C448.241 124.733 441.512 113.745 430.557 102.798C419.603 91.8437 408.648 85.1149 395.683 80.0889C383.128 75.2187 368.809 71.8994 347.843 70.9394C326.836 69.9834 320.148 69.7495 266.646 69.7495H266.704ZM249.036 105.24C254.28 105.231 260.131 105.24 266.704 105.24C319.286 105.24 325.519 105.428 346.284 106.372C365.485 107.25 375.907 110.459 382.849 113.154C392.039 116.724 398.592 120.991 405.48 127.884C412.373 134.777 416.64 141.341 420.218 150.532C422.914 157.466 426.126 167.887 427 187.089C427.944 207.849 428.149 214.086 428.149 266.644C428.149 319.202 427.944 325.439 427 346.2C426.122 365.401 422.914 375.823 420.218 382.757C416.649 391.947 412.373 398.491 405.48 405.38C398.588 412.273 392.043 416.54 382.849 420.109C375.915 422.817 365.485 426.018 346.284 426.896C325.523 427.839 319.286 428.044 266.704 428.044C214.116 428.044 207.884 427.839 187.123 426.896C167.922 426.009 157.5 422.801 150.554 420.105C141.364 416.536 134.799 412.269 127.906 405.376C121.013 398.483 116.746 391.935 113.168 382.74C110.473 375.806 107.26 365.385 106.386 346.183C105.443 325.422 105.254 319.186 105.254 266.595C105.254 214.004 105.443 207.8 106.386 187.039C107.264 167.838 110.473 157.416 113.168 150.474C116.738 141.284 121.013 134.719 127.906 127.826C134.799 120.933 141.364 116.666 150.554 113.089C157.496 110.381 167.922 107.18 187.123 106.298C205.291 105.478 212.332 105.231 249.036 105.19V105.24ZM371.828 137.94C367.154 137.94 362.584 139.326 358.698 141.923C354.811 144.52 351.782 148.212 349.994 152.531C348.205 156.849 347.738 161.602 348.65 166.186C349.563 170.771 351.814 174.982 355.12 178.286C358.426 181.591 362.638 183.841 367.223 184.752C371.808 185.663 376.56 185.194 380.878 183.404C385.196 181.614 388.886 178.584 391.482 174.696C394.078 170.809 395.463 166.239 395.461 161.564C395.461 148.517 384.876 137.932 371.828 137.932V137.94ZM266.704 165.552C210.851 165.552 165.567 210.836 165.567 266.689C165.567 322.542 210.851 367.806 266.704 367.806C322.556 367.806 367.828 322.542 367.828 266.689C367.828 210.836 322.556 165.552 266.704 165.552ZM266.704 201.043C302.957 201.043 332.35 230.432 332.35 266.689C332.35 302.943 302.957 332.336 266.704 332.336C230.446 332.336 201.057 302.943 201.057 266.689C201.057 230.432 230.446 201.043 266.704 201.043Z" fill="white"/>
<defs>
<radialGradient id="paint0_radial_232_15" cx="0" cy="0" r="1" gradientUnits="userSpaceOnUse" gradientTransform="translate(141.706 574.411) rotate(-90) scale(528.573 491.748)">
<stop stop-color="#FFDD55"/>
<stop offset="0.1" stop-color="#FFDD55"/>
<stop offset="0.5" stop-color="#FF543E"/>
<stop offset="1" stop-color="#C837AB"/>
</radialGradient>
<radialGradient id="paint1_radial_232_15" cx="0" cy="0" r="1" gradientUnits="userSpaceOnUse" gradientTransform="translate(-89.3605 38.4204) rotate(78.6776) scale(236.277 974.188)">
<stop stop-color="#3771C8"/>
<stop offset="0.128" stop-color="#3771C8"/>
<stop offset="1" stop-color="#6600FF" stop-opacity="0"/>
</radialGradient>
</defs>
</svg>
