<svg width="194" height="194" viewBox="0 0 194 194" fill="none" xmlns="http://www.w3.org/2000/svg">
<rect width="194" height="194" rx="40" fill="#00C330"/>
<g clip-path="url(#clip0_232_10)">
<path d="M133.268 53.7581C123.589 44.0561 110.699 38.72 97.0007 38.72C68.7263 38.72 45.7187 61.7276 45.7187 90.002C45.7187 99.0341 48.0749 107.858 52.5563 115.643L45.2798 142.208L72.4685 135.07C79.9529 139.159 88.3844 141.307 96.9776 141.307H97.0007C125.252 141.307 148.768 118.299 148.768 90.0251C148.768 76.3268 142.947 63.4601 133.268 53.7581ZM97.0007 132.668C89.3315 132.668 81.824 130.612 75.2867 126.731L73.739 125.807L57.6152 130.034L61.9118 114.303L60.8954 112.686C56.6219 105.895 54.3812 98.0639 54.3812 90.002C54.3812 66.5093 73.508 47.3825 97.0238 47.3825C108.412 47.3825 119.107 51.8177 127.146 59.8796C135.185 67.9415 140.128 78.6368 140.105 90.0251C140.105 113.541 120.493 132.668 97.0007 132.668ZM120.378 100.743C119.107 100.097 112.801 97.0013 111.623 96.5855C110.445 96.1466 109.59 95.9387 108.735 97.2323C107.881 98.5259 105.432 101.39 104.67 102.268C103.931 103.123 103.168 103.238 101.898 102.591C94.3673 98.8262 89.4239 95.8694 84.4574 87.3455C83.1407 85.0817 85.7741 85.2434 88.2227 80.3462C88.6385 79.4915 88.4306 78.7523 88.1072 78.1055C87.7838 77.4587 85.2197 71.1524 84.1571 68.5883C83.1176 66.0935 82.055 66.44 81.2696 66.3938C80.5304 66.3476 79.6757 66.3476 78.821 66.3476C77.9663 66.3476 76.5803 66.671 75.4022 67.9415C74.2241 69.2351 70.9208 72.3305 70.9208 78.6368C70.9208 84.9431 75.5177 91.0415 76.1414 91.8962C76.7882 92.7509 85.1735 105.687 98.0402 111.254C106.171 114.765 109.359 115.065 113.425 114.465C115.896 114.095 121.002 111.369 122.064 108.366C123.127 105.363 123.127 102.799 122.803 102.268C122.503 101.691 121.648 101.367 120.378 100.743Z" fill="white"/>
</g>
<defs>
<clipPath id="clip0_232_10">
<rect width="103.488" height="118.272" fill="white" transform="translate(45.4561 37.6641)"/>
</clipPath>
</defs>
</svg>
