<?xml version="1.0" encoding="UTF-8"?>
<svg id="Layer_1" xmlns="http://www.w3.org/2000/svg" version="1.1" viewBox="0 0 233.74 75.02">
  <!-- Generator: Adobe Illustrator 29.5.1, SVG Export Plug-In . SVG Version: 2.1.0 Build 141)  -->
  <defs>
    <style>
      .st0 {
        fill: #f04e23;
      }
    </style>
  </defs>
  <path d="M67.63,62.27V28.47c0-.17.12-.3.29-.31,0,0,.01,0,.02,0h6.49c.17,0,.31.14.31.31v12.18h.1c1.77-2.11,4.42-3.27,7.17-3.15,5.11,0,6.75,3.34,6.75,7.77v17c0,.17-.14.31-.31.31h-6.49c-.17,0-.31-.14-.31-.31v-16.37c0-1.92-2-2.51-3.28-2.51s-3.63.84-3.63,3.24v15.64c0,.17-.14.31-.31.31h-6.49c-.17,0-.31-.14-.31-.31h0Z"/>
  <path d="M119.45,55.6v-11.65h-3c-.17,0-.31-.14-.31-.31v-4.18c0-.13.09-.25.21-.29l4-1.17,2.13-6.67c.04-.09.12-.15.22-.17h3.5c.17,0,.3.12.31.29,0,0,0,.01,0,.02v6.58h5.25c.17,0,.31.14.31.31v5.34c0,.17-.13.3-.3.3,0,0,0,0-.01,0h-5.25v10.86c0,1.13.64,1.82,2.21,1.82h3c.17,0,.31.14.31.31v4.69c0,.13-.08.24-.2.29-1.57.72-3.27,1.1-5,1.1-5.23,0-7.38-3.1-7.38-7.47Z"/>
  <path d="M221.08,55.6v-11.65h-3c-.17,0-.31-.14-.31-.31v-4.18c0-.13.09-.25.21-.29l4-1.17,2.13-6.67c.04-.12.16-.21.29-.21h3.5c.17,0,.3.12.31.29,0,0,0,.01,0,.02v6.58h5.25c.17,0,.31.14.31.31v5.34c0,.17-.13.3-.3.3,0,0,0,0-.01,0h-5.25v10.9c0,1.13.64,1.82,2.21,1.82h3c.17,0,.31.14.31.31v4.69c0,.13-.08.24-.2.29-1.57.72-3.27,1.1-5,1.1-5.3,0-7.45-3.1-7.45-7.47Z"/>
  <path d="M136.38,62.27v-24c0-.17.14-.31.31-.31h5.86c.13,0,.25.09.29.21l.68,2.44h.1c1.75-2.11,4.39-3.27,7.13-3.15,3.49,0,5.17,1.57,6.11,4h.2c1.66-2.63,4.61-4.15,7.71-4,5.11,0,6.75,3.34,6.75,7.77v17c0,.17-.14.31-.31.31h-6.51c-.17,0-.31-.14-.31-.31v-16.22c0-1.92-1.81-2.66-3.09-2.66-1.48,0-3.68.94-3.78,3.1v15.82c0,.17-.12.3-.29.31,0,0-.01,0-.02,0h-6.53c-.17,0-.3-.14-.3-.31v-16.26c0-1.92-1.92-2.66-3.32-2.66-1.91-.01-3.48,1.49-3.55,3.4v15.52c0,.17-.13.3-.3.31h-6.51c-.17,0-.31-.13-.32-.3,0,0,0,0,0-.01Z"/>
  <path d="M175.81,43.4v-4.46c0-.15.11-.27.25-.3,3.12-.68,6.3-1.06,9.5-1.13,6.29,0,10,1.52,10,8.31v16.46c0,.17-.14.31-.31.31h-6.21c-.14,0-.26-.1-.29-.23l-.67-2.43h.28c-1.77,2.46-4.12,3.15-7,3.15-4.62,0-7.08-3.59-7.08-7.82,0-6.39,4.67-7.67,8.16-7.67h6v-1.62c0-2-1.5-2.45-7.2-2.45-2.41,0-5,.19-5.11.19-.17,0-.31-.14-.32-.31ZM188.43,51.96h-3.9c-2.07,0-3.41.79-3.41,3,0,2.38,1.71,2.92,3.35,2.92,2.1.11,3.89-1.49,4-3.59,0-.14,0-.27,0-.41v-2l-.04.08Z"/>
  <path d="M199.7,62.27v-24c0-.17.13-.3.3-.31h5.8c.15,0,.28.1.3.25l.69,3.73h.1c1.48-2.81,4.42-4.54,7.59-4.47.17,0,.31.14.31.31v6.68c0,.17-.14.31-.31.31h-1.66c-4.47,0-6,1.79-6,4v13.46c0,.17-.13.3-.3.31h-6.49c-.16.01-.31-.11-.33-.27Z"/>
  <path d="M91.78,50.29c0-7.82,3.05-12.78,11.7-12.78s11.75,5,11.75,12.78-3.05,12.78-11.75,12.78-11.7-4.91-11.7-12.78ZM99.46,50.29c0,4.23.62,6.82,4,6.82s4.07-2.59,4.07-6.82-.63-6.78-4.07-6.78-4,2.55-4,6.78Z"/>
  <path class="st0" d="M54.28,47.85c.34-6.69-2-17.63-7.56-26.58-.15-.23-.4-.14-.35.1.37,1.36.46,3.83-1.7,3.68-3.84-.26.13-8.48-8.3-14.18-.07-.07-.19-.07-.25,0-.05.06-.06.14-.03.21.58,1.1.92,4.53-.41,5.7-1.07.94-3,.69-4.93-2.4-2.62-4.35-2.54-9.8.19-14.08.16-.26-.06-.36-.24-.3-11.6,3.83-13.92,17.51-16.39,22.49-.41.84-.77,1.27-1.48,1.23-2.11-.14-.59-4.65.14-6.22.04-.09,0-.2-.1-.24-.07-.03-.14-.01-.19.04C5.91,24.75,1.58,34.09.27,44.06c0-.23-.1.82-.16,1.59H.11c0,.3-.02.6-.06.91v1.09c-.12,14.99,11.93,27.25,26.92,27.37,14.99.12,27.25-11.93,27.37-26.92-.05-.09-.06-.17-.06-.25ZM27.04,60.46c-6.95-.04-12.56-5.71-12.52-12.66s5.71-12.56,12.66-12.52,12.56,5.71,12.52,12.66c0,.01,0,.03,0,.04-.06,6.94-5.72,12.52-12.66,12.48Z"/>
</svg>